<?xml version="1.0" encoding="UTF-8" standalone="no"?>
<!-- Created with Inkscape (http://www.inkscape.org/) -->

<svg
   width="200"
   height="200"
   viewBox="0 0 52.916666 52.916666"
   version="1.1"
   id="svg5"
   inkscape:version="1.2 (dc2aedaf03, 2022-05-15)"
   sodipodi:docname="favicon.svg"
   inkscape:export-filename="favicon.png"
   inkscape:export-xdpi="96"
   inkscape:export-ydpi="96"
   xmlns:inkscape="http://www.inkscape.org/namespaces/inkscape"
   xmlns:sodipodi="http://sodipodi.sourceforge.net/DTD/sodipodi-0.dtd"
   xmlns="http://www.w3.org/2000/svg"
   xmlns:svg="http://www.w3.org/2000/svg">
  <sodipodi:namedview
     id="namedview7"
     pagecolor="#ffffff"
     bordercolor="#000000"
     borderopacity="0.25"
     inkscape:showpageshadow="2"
     inkscape:pageopacity="0.0"
     inkscape:pagecheckerboard="0"
     inkscape:deskcolor="#d1d1d1"
     inkscape:document-units="px"
     showgrid="true"
     inkscape:zoom="1.1883161"
     inkscape:cx="144.32187"
     inkscape:cy="96.354834"
     inkscape:window-width="1080"
     inkscape:window-height="650"
     inkscape:window-x="-6"
     inkscape:window-y="-6"
     inkscape:window-maximized="1"
     inkscape:current-layer="layer1">
    <inkscape:grid
       type="xygrid"
       id="grid132"
       originx="0"
       originy="0" />
  </sodipodi:namedview>
  <defs
     id="defs2" />
  <g
     inkscape:label="图层 1"
     inkscape:groupmode="layer"
     id="layer1">
    <path
       id="rect188"
       style="fill:#806600;stroke-width:0.264583"
       d="M 26.458333 42.333333 L 5.2916666 42.333333 C 5.2916666 45.26491 7.651756 47.624999 10.583333 47.624999 L 26.458333 47.624999 L 26.458333 42.333333 z " />
    <path
       id="path488"
       style="fill:#000000;stroke-width:0.264583"
       d="M 26.458333 42.333333 L 26.458333 47.624999 L 42.333333 47.624999 C 45.26491 47.624999 47.624999 45.26491 47.624999 42.333333 L 26.458333 42.333333 z " />
    <path
       id="path408"
       style="fill:#d4aa00;stroke-width:0.264583"
       d="M 26.458333 34.395833 L 5.2916666 34.395833 L 5.2916666 42.333333 L 26.458333 42.333333 L 26.458333 34.395833 z " />
    <path
       id="path485"
       style="fill:#333333;stroke-width:0.264583"
       d="M 26.458333 34.395833 L 26.458333 42.333333 L 47.624999 42.333333 L 47.624999 34.395833 L 26.458333 34.395833 z " />
    <path
       id="path411"
       style="fill:#ffcc00;stroke-width:0.264583"
       d="M 26.458333 23.8125 L 5.2916666 23.8125 L 5.2916666 34.395833 L 26.458333 34.395833 L 26.458333 23.8125 z " />
    <path
       id="path482"
       style="fill:#666666;stroke-width:0.264583"
       d="M 26.458333 23.8125 L 26.458333 34.395833 L 47.624999 34.395833 L 47.624999 23.8125 L 26.458333 23.8125 z " />
    <path
       id="path414"
       style="fill:#999999;stroke-width:0.264583"
       d="M 26.458333 5.2916666 L 26.458333 23.8125 L 47.624999 23.8125 L 47.624999 10.583333 C 47.624999 7.6517622 45.264904 5.2916666 42.333333 5.2916666 L 26.458333 5.2916666 z " />
    <path
       id="path479"
       style="fill:#ffdd55;stroke-width:0.264583"
       d="M 10.583333 5.2916666 C 7.6517622 5.2916666 5.2916666 7.6517622 5.2916666 10.583333 L 5.2916666 23.8125 L 26.458333 23.8125 L 26.458333 5.2916666 L 10.583333 5.2916666 z " />
  </g>
</svg>
