<?xml version="1.0" encoding="UTF-8" standalone="no"?>
<!-- Created with Inkscape (http://www.inkscape.org/) -->

<svg
   version="1.1"
   id="svg2"
   width="170.66667"
   height="170.66667"
   viewBox="0 0 170.66667 170.66667"
   sodipodi:docname="favicon.svg"
   inkscape:version="1.2 (dc2aedaf03, 2022-05-15)"
   xmlns:inkscape="http://www.inkscape.org/namespaces/inkscape"
   xmlns:sodipodi="http://sodipodi.sourceforge.net/DTD/sodipodi-0.dtd"
   xmlns:xlink="http://www.w3.org/1999/xlink"
   xmlns="http://www.w3.org/2000/svg"
   xmlns:svg="http://www.w3.org/2000/svg">
  <defs
     id="defs6">
    <rect
       x="15.900622"
       y="125.2969"
       width="34.345342"
       height="22.896895"
       id="rect1209" />
    <rect
       x="17.596688"
       y="127.62899"
       width="25.440995"
       height="32.437268"
       id="rect1203" />
    <linearGradient
       inkscape:collect="always"
       id="linearGradient945">
      <stop
         style="stop-color:#05fffb;stop-opacity:1;"
         offset="0"
         id="stop941" />
      <stop
         style="stop-color:#0067e8;stop-opacity:1;"
         offset="1"
         id="stop943" />
    </linearGradient>
    <linearGradient
       inkscape:collect="always"
       xlink:href="#linearGradient945"
       id="linearGradient947"
       x1="2.6666667"
       y1="85.304036"
       x2="168"
       y2="85.304036"
       gradientUnits="userSpaceOnUse" />
  </defs>
  <sodipodi:namedview
     id="namedview4"
     pagecolor="#ffffff"
     bordercolor="#000000"
     borderopacity="0.25"
     inkscape:showpageshadow="2"
     inkscape:pageopacity="0.0"
     inkscape:pagecheckerboard="0"
     inkscape:deskcolor="#d1d1d1"
     showgrid="false"
     inkscape:zoom="1.6676395"
     inkscape:cx="22.486874"
     inkscape:cy="56.367099"
     inkscape:window-width="1920"
     inkscape:window-height="985"
     inkscape:window-x="-8"
     inkscape:window-y="16"
     inkscape:window-maximized="1"
     inkscape:current-layer="g8" />
  <g
     inkscape:groupmode="layer"
     inkscape:label="Image"
     id="g8">
    <path
       style="fill:url(#linearGradient947);stroke-width:1.33333;fill-opacity:1"
       d="M 60.597267,164.83388 C 46.126966,160.145 37.581577,154.9076 26.556303,143.97044 10.148058,127.69335 2.6666667,109.33027 2.6666667,85.333335 2.6666667,61.436679 10.135544,43.158169 26.646857,26.646857 43.158169,10.135544 61.436679,2.6666667 85.333335,2.6666667 c 23.896655,0 42.175165,7.4688773 58.686485,23.9801903 C 160.53112,43.158169 168,61.436679 168,85.333335 c 0,23.989395 -7.47805,42.348435 -23.88964,58.650375 -17.21849,17.10348 -34.4147,24.05635 -59.250805,23.95664 -11.727908,-0.0471 -16.841176,-0.70177 -24.262288,-3.10647 z m 48.971433,-8.06936 c 47.12962,-16.39006 66.10973,-72.46528 38.37238,-113.368096 l -5.47541,-8.07431 -13.56617,0.85206 c -14.70706,0.923717 -22.75422,2.677191 -30.558667,6.658723 -5.61413,2.864115 -6.436821,3.957895 -2.129784,2.83158 2.796185,-0.73122 2.855197,-0.491592 2.082953,8.458159 C 97.125583,67.663768 93.652846,76.95305 87.267772,83.616882 77.802799,93.495075 71.767449,90.14006 70.884236,74.509376 70.412463,66.160136 70.800756,64.305136 74.701373,56.27398 78.187738,49.09574 82.31337,44.115306 95.630617,31.00835 111.58339,15.307484 112.0927,14.635907 108.95242,13.441978 103.73362,11.45779 90.724548,9.3333335 83.793228,9.3333335 H 77.409546 L 72.125864,20.333334 c -7.566076,15.751672 -9.957012,25.824572 -10.04838,42.333334 -0.07027,12.696419 0.2643,14.682828 3.593145,21.333334 4.364915,8.72041 9.220714,12.60606 15.753474,12.60606 6.242031,0 11.174841,-3.355438 15.910476,-10.822758 C 102.07717,78.305015 104,69.694235 104,55.934373 c 0,-8.534256 0.38992,-10.601039 2,-10.601039 1.1,0 2.00919,1.05 2.02042,2.333334 0.0154,1.760557 0.2933,1.902997 1.13209,0.580262 1.6561,-2.611612 13.06841,10.608208 17.75781,20.570327 13.31635,28.289152 2.31615,59.541013 -27.91549,79.308653 -5.319511,3.47829 -12.369511,7.35441 -15.666667,8.6136 -3.297156,1.2592 -5.994828,2.89705 -5.994828,3.63968 0,2.44309 21.86709,-0.009 32.235365,-3.61467 z M 86.729266,120.16531 c 13.414074,-4.25948 22.335944,-11.19155 27.711934,-21.531467 4.2626,-8.198469 4.46241,-9.205479 3.96238,-19.969928 -0.42396,-9.127196 -1.31596,-13.024292 -4.57771,-20.000001 l -4.05114,-8.663913 0.61011,14.09417 c 0.79334,18.327143 -1.50728,26.897165 -9.42854,35.12207 C 82.75368,118.11664 51.171474,105.36318 35.998623,72.98516 33.151255,66.909036 29.402034,57.020614 27.667021,51.010892 l -3.15457,-10.92677 -4.168899,6.957939 c -7.470447,12.468265 -10.160674,22.595859 -10.17144,38.291274 -0.0079,11.516068 0.576044,15.652435 3.291234,23.313485 l 3.300836,9.31348 7.951242,1.77015 c 22.566508,5.02384 47.022013,5.19534 62.013842,0.43486 z M 83.888654,67.663685 c 2.229048,-4.581693 4.449664,-11.030351 4.934701,-14.330351 l 0.881887,-6 -3.519287,3.232419 c -1.935608,1.777831 -3.519287,4.588771 -3.519287,6.246533 0,4.583099 -2.458017,10.124469 -6.25802,14.108118 -2.092747,2.193885 -3.103193,4.417099 -2.601625,5.724165 1.447686,3.772609 5.734995,-0.0466 10.081631,-8.980884 z"
       id="path116" />
    <text
       xml:space="preserve"
       id="text1201"
       style="fill:#ff0000;white-space:pre;shape-inside:url(#rect1203)" />
  </g>
</svg>
